<svg width="104" height="53" viewBox="0 0 104 53" fill="none" xmlns="http://www.w3.org/2000/svg">
<path d="M66.8988 51.127L64.626 51.0104L64.1514 52.1517L63.4354 52.1184L65.5834 47.0281L66.366 47.0697L67.9811 52.3517L67.2651 52.3183L66.9071 51.1353L66.8988 51.127ZM66.7323 50.5688L65.9247 47.8862L64.8507 50.4688L66.7323 50.5605V50.5688Z" fill="#1C1C1C"/>
<path d="M69.921 47.1365L69.8877 52.3601H69.205L69.23 47.1365H69.9127H69.921Z" fill="#1C1C1C"/>
<path d="M74.8662 49.6189C74.5831 49.9188 74.1335 50.0771 73.5258 50.1021L72.5267 50.1437L72.6183 52.3182L71.9356 52.3432L71.7275 47.1279L73.4092 47.0612C74.0003 47.0362 74.4499 47.1612 74.7663 47.4361C75.0826 47.7111 75.2491 48.0693 75.2658 48.5192C75.2824 48.9524 75.1492 49.319 74.8662 49.6189ZM74.3333 49.2606C74.5082 49.0857 74.5831 48.8524 74.5748 48.5442C74.5498 47.9027 74.1668 47.5944 73.4259 47.6194L72.4268 47.6611L72.5017 49.5772L73.5008 49.5356C73.8754 49.5189 74.1585 49.4273 74.325 49.2523L74.3333 49.2606Z" fill="#1C1C1C"/>
<path d="M78.2379 51.6768C77.8133 51.5018 77.4636 51.2269 77.1805 50.8436C76.8975 50.4604 76.731 50.0272 76.6644 49.519C76.5978 49.0108 76.6644 48.5443 76.8392 48.111C77.014 47.6778 77.2971 47.3279 77.6634 47.053C78.0297 46.7781 78.4543 46.6114 78.9372 46.5531C79.4201 46.4948 79.878 46.5531 80.3026 46.7281C80.7272 46.903 81.0768 47.178 81.3516 47.5529C81.6263 47.9278 81.8011 48.3693 81.8594 48.8775C81.9177 49.3857 81.8594 49.8606 81.6846 50.2855C81.5014 50.7104 81.235 51.0686 80.8604 51.3435C80.4941 51.6184 80.0611 51.7851 79.5783 51.8434C79.0954 51.9017 78.6458 51.8434 78.2212 51.6684L78.2379 51.6768ZM80.4608 50.8936C80.7272 50.6937 80.927 50.4188 81.0519 50.0855C81.1767 49.7523 81.2184 49.3774 81.1684 48.9691C81.1185 48.5526 80.9936 48.2027 80.7854 47.9111C80.5856 47.6195 80.3275 47.4112 80.0195 47.2779C79.7115 47.1446 79.3701 47.103 79.0038 47.1446C78.6375 47.1863 78.3211 47.3113 78.0547 47.5195C77.7883 47.7278 77.5885 47.9944 77.4636 48.3193C77.3387 48.6442 77.2971 49.0191 77.347 49.4357C77.397 49.8439 77.5219 50.2022 77.73 50.4937C77.9298 50.7853 78.1879 51.0019 78.5043 51.1352C78.8123 51.2685 79.1537 51.3102 79.5117 51.2685C79.8696 51.2269 80.186 51.1019 80.4608 50.8936Z" fill="#1C1C1C"/>
<path d="M84.557 50.4189L86.3386 50.0274L86.4552 50.5689L84.0075 51.1021L82.8919 46.0034L83.5579 45.8618L84.557 50.4189Z" fill="#1C1C1C"/>
<path d="M90.7512 48.0113L88.6033 48.7528L88.5866 49.9858L87.9039 50.2191L87.9872 44.6955L88.7281 44.4373L92.1999 48.7278L91.5172 48.9611L90.7429 48.003L90.7512 48.0113ZM90.3932 47.5531L88.6366 45.3703L88.6116 48.1696L90.3932 47.5531Z" fill="#1C1C1C"/>
<path d="M95.5382 44.137C95.738 44.162 95.9211 44.237 96.096 44.3453C96.2708 44.4536 96.4123 44.6036 96.5123 44.7869C96.6455 45.0118 96.7121 45.2534 96.7037 45.5033C96.6954 45.7533 96.6122 45.9949 96.454 46.2365C96.2958 46.4697 96.0627 46.678 95.763 46.8613L94.0896 47.8527L91.4254 43.3622L93.0322 42.4042C93.3403 42.2209 93.6233 42.1209 93.8981 42.0959C94.1728 42.0709 94.4142 42.1126 94.6224 42.2209C94.8305 42.3292 94.997 42.4875 95.1302 42.7041C95.2884 42.9707 95.3467 43.2373 95.3051 43.4955C95.2634 43.7538 95.1469 43.9954 94.9554 44.212C95.1386 44.137 95.3217 44.1204 95.5215 44.1454L95.5382 44.137ZM93.1654 44.9535L94.1478 44.3703C94.4226 44.2037 94.5974 44.0204 94.6723 43.7954C94.7473 43.5788 94.714 43.3539 94.5808 43.129C94.4475 42.904 94.2644 42.7707 94.0396 42.7291C93.8148 42.6874 93.5567 42.7541 93.2737 42.9207L92.2996 43.4955L93.1654 44.9535ZM95.9878 45.7949C96.071 45.5616 96.0377 45.32 95.8962 45.0784C95.7463 44.8285 95.5465 44.6869 95.2884 44.6452C95.0303 44.6036 94.7556 44.6702 94.4725 44.8368L93.4568 45.4367L94.3976 47.0196L95.43 46.4031C95.7213 46.2281 95.9128 46.0282 95.9878 45.7949Z" fill="#1C1C1C"/>
<path d="M99.6344 43.6707C99.368 43.7956 99.0932 43.8539 98.8352 43.8289C98.5687 43.804 98.3273 43.704 98.1108 43.5207L98.5854 42.9708C98.7852 43.1125 99.01 43.1708 99.2514 43.1458C99.4929 43.1208 99.726 42.9792 99.9424 42.7209C100.151 42.471 100.259 42.2294 100.259 41.9794C100.259 41.7295 100.159 41.5212 99.9674 41.3629C99.8176 41.238 99.6594 41.1713 99.4929 41.1713C99.3264 41.1713 99.1682 41.213 99.01 41.2963C98.8518 41.3796 98.6603 41.5046 98.4189 41.6629C98.1275 41.8628 97.8777 42.0211 97.6779 42.1211C97.4781 42.221 97.2533 42.2627 97.0119 42.2544C96.7705 42.2377 96.529 42.1294 96.2793 41.9211C96.0628 41.7378 95.9213 41.5212 95.8463 41.263C95.7714 41.013 95.7797 40.7464 95.8463 40.4632C95.9296 40.1882 96.0711 39.9216 96.2959 39.6634C96.6123 39.2885 96.9703 39.0635 97.3532 38.9886C97.7362 38.9136 98.1025 38.9886 98.4355 39.2218L97.9527 39.7883C97.7862 39.68 97.5863 39.6467 97.3449 39.6884C97.1118 39.73 96.8953 39.8633 96.6955 40.0966C96.5124 40.3132 96.4125 40.5381 96.4125 40.7714C96.4125 41.0047 96.504 41.2046 96.7039 41.3796C96.8454 41.5046 97.0036 41.5629 97.1617 41.5545C97.3199 41.5545 97.4781 41.5129 97.628 41.4296C97.7778 41.3546 97.9776 41.2296 98.2191 41.063C98.5188 40.8631 98.7686 40.7131 98.9684 40.6131C99.1682 40.5132 99.4013 40.4715 99.6427 40.4798C99.8842 40.4882 100.134 40.6048 100.384 40.8214C100.575 40.988 100.717 41.1963 100.8 41.4379C100.883 41.6878 100.892 41.9544 100.825 42.246C100.758 42.5376 100.608 42.8209 100.375 43.0958C100.151 43.3624 99.9091 43.554 99.6344 43.679V43.6707Z" fill="#1C1C1C"/>
<path d="M53.5781 45.9615C52.7455 45.9615 51.913 45.9532 51.0721 45.9282C26.1708 45.3367 6.8724 36.1725 7.13049 25.0587C7.2637 19.3852 12.2756 14.3449 21.2421 10.8708C29.5509 7.655 40.4822 6.03043 52.0129 6.30535C63.5519 6.58028 74.3916 8.72138 82.5339 12.3288C91.3256 16.2277 96.0877 21.5013 95.9545 27.1748C95.8213 32.8483 90.8094 37.8887 81.8429 41.3628C74.1419 44.3453 64.1847 45.9615 53.5781 45.9615ZM49.4903 10.9541C39.4581 10.9541 30.1004 12.4537 22.9322 15.2363C15.9471 17.9439 11.8926 21.568 11.8094 25.167C11.6429 32.3235 27.7692 40.6879 51.1804 41.2378C62.1283 41.496 72.4019 39.9881 80.1528 36.9889C87.1379 34.2813 91.1924 30.6572 91.2756 27.0582C91.3589 23.4508 87.4875 19.6435 80.6357 16.611C73.0429 13.2452 62.836 11.2457 51.9047 10.9874C51.0971 10.9708 50.2979 10.9625 49.4986 10.9625L49.4903 10.9541Z" fill="#1C1C1C"/>
<path d="M53.8778 16.5278H49.1989V35.7144H53.8778V16.5278Z" fill="#1C1C1C"/>
<path d="M66.4125 17.763L34.9614 30.1096L36.6702 34.4683L68.1212 22.1217L66.4125 17.763Z" fill="#1C1C1C"/>
<path d="M35.8386 17.4375L34.1306 21.7965L67.2348 34.7854L68.9427 30.4264L35.8386 17.4375Z" fill="#1C1C1C"/>
<path d="M90.876 17.0026C82.2591 10.8043 70.129 5.74729 56.7417 2.74808C43.3544 -0.242794 30.2335 -0.80931 19.7851 1.13184C8.67064 3.20629 1.74388 7.96337 0.278608 14.5283C-2.63529 27.5582 17.6205 42.7958 46.3765 49.2108C51.7048 50.4021 56.9831 51.2019 62.0616 51.6185L64.1097 47.078C58.7398 46.7281 53.1035 45.92 47.3922 44.6453C19.4604 38.397 2.83452 24.559 4.84927 15.5447C5.85665 10.9959 11.6178 7.41352 20.6426 5.73063C24.4307 5.03081 28.6184 4.67257 33.0642 4.67257C40.1325 4.67257 47.8584 5.564 55.7177 7.31354C68.5055 10.1711 80.0113 14.9615 88.1369 20.8016C95.5965 26.1669 99.2846 31.8487 98.2689 36.4058C98.1191 37.064 97.8776 37.6805 97.5446 38.2804C97.6945 38.1804 97.8693 38.1054 98.1024 38.1054C98.8517 38.1054 99.1764 38.7469 99.1015 39.3217C99.1015 39.4134 99.1015 39.505 99.0765 39.5967C99.2846 39.5134 99.5178 39.455 99.7842 39.455C100.767 39.455 101.333 40.1049 101.474 40.8547C102.107 39.7716 102.573 38.6303 102.84 37.4222C104.297 30.8573 100.051 23.6092 90.8676 16.9943L90.876 17.0026Z" fill="#1C1C1C"/>
</svg>
