<svg width="104" height="53" viewBox="0 0 104 53" fill="none" xmlns="http://www.w3.org/2000/svg">
<path d="M67.7784 51.127L65.5056 51.0104L65.0311 52.1517L64.3151 52.1184L66.463 47.0281L67.2456 47.0697L68.8607 52.3517L68.1448 52.3183L67.7868 51.1353L67.7784 51.127ZM67.6119 50.5688L66.8044 47.8862L65.7304 50.4688L67.6119 50.5605V50.5688Z" fill="white"/>
<path d="M70.8006 47.1365L70.7673 52.3601H70.0847L70.1096 47.1365H70.7923H70.8006Z" fill="white"/>
<path d="M75.7458 49.6189C75.4627 49.9188 75.0132 50.0771 74.4054 50.1021L73.4064 50.1437L73.4979 52.3182L72.8153 52.3432L72.6071 47.1279L74.2889 47.0612C74.88 47.0362 75.3295 47.1612 75.6459 47.4361C75.9623 47.7111 76.1288 48.0693 76.1454 48.5192C76.1621 48.9524 76.0289 49.319 75.7458 49.6189ZM75.213 49.2606C75.3878 49.0857 75.4627 48.8524 75.4544 48.5442C75.4294 47.9027 75.0465 47.5944 74.3055 47.6194L73.3064 47.6611L73.3814 49.5772L74.3804 49.5356C74.7551 49.5189 75.0381 49.4273 75.2046 49.2523L75.213 49.2606Z" fill="white"/>
<path d="M79.1175 51.6768C78.6929 51.5018 78.3432 51.2269 78.0602 50.8436C77.7771 50.4604 77.6106 50.0272 77.544 49.519C77.4774 49.0108 77.544 48.5443 77.7188 48.111C77.8937 47.6778 78.1767 47.3279 78.543 47.053C78.9094 46.7781 79.334 46.6114 79.8168 46.5531C80.2997 46.4948 80.7576 46.5531 81.1822 46.7281C81.6068 46.903 81.9565 47.178 82.2312 47.5529C82.506 47.9278 82.6808 48.3693 82.7391 48.8775C82.7973 49.3857 82.7391 49.8606 82.5642 50.2855C82.3811 50.7104 82.1147 51.0686 81.74 51.3435C81.3737 51.6184 80.9408 51.7851 80.4579 51.8434C79.975 51.9017 79.5254 51.8434 79.1008 51.6684L79.1175 51.6768ZM81.3404 50.8936C81.6068 50.6937 81.8066 50.4188 81.9315 50.0855C82.0564 49.7523 82.098 49.3774 82.0481 48.9691C81.9981 48.5526 81.8732 48.2027 81.6651 47.9111C81.4653 47.6195 81.2072 47.4112 80.8991 47.2779C80.5911 47.1446 80.2498 47.103 79.8834 47.1446C79.5171 47.1863 79.2008 47.3113 78.9343 47.5195C78.6679 47.7278 78.4681 47.9944 78.3432 48.3193C78.2184 48.6442 78.1767 49.0191 78.2267 49.4357C78.2766 49.8439 78.4015 50.2022 78.6097 50.4937C78.8095 50.7853 79.0676 51.0019 79.3839 51.1352C79.692 51.2685 80.0333 51.3102 80.3913 51.2685C80.7493 51.2269 81.0657 51.1019 81.3404 50.8936Z" fill="white"/>
<path d="M85.4366 50.4189L87.2183 50.0274L87.3348 50.5689L84.8872 51.1021L83.7715 46.0034L84.4376 45.8618L85.4366 50.4189Z" fill="white"/>
<path d="M91.6309 48.0113L89.4829 48.7528L89.4663 49.9858L88.7836 50.2191L88.8668 44.6955L89.6078 44.4373L93.0795 48.7278L92.3968 48.9611L91.6225 48.003L91.6309 48.0113ZM91.2729 47.5531L89.5162 45.3703L89.4912 48.1696L91.2729 47.5531Z" fill="white"/>
<path d="M96.4178 44.137C96.6176 44.162 96.8008 44.237 96.9756 44.3453C97.1505 44.4536 97.292 44.6036 97.3919 44.7869C97.5251 45.0118 97.5917 45.2534 97.5834 45.5033C97.5751 45.7533 97.4918 45.9949 97.3336 46.2365C97.1754 46.4697 96.9423 46.678 96.6426 46.8613L94.9692 47.8527L92.3051 43.3622L93.9119 42.4042C94.2199 42.2209 94.503 42.1209 94.7777 42.0959C95.0524 42.0709 95.2939 42.1126 95.502 42.2209C95.7102 42.3292 95.8767 42.4875 96.0099 42.7041C96.1681 42.9707 96.2263 43.2373 96.1847 43.4955C96.1431 43.7538 96.0265 43.9954 95.835 44.212C96.0182 44.137 96.2014 44.1204 96.4012 44.1454L96.4178 44.137ZM94.0451 44.9535L95.0275 44.3703C95.3022 44.2037 95.477 44.0204 95.552 43.7954C95.6269 43.5788 95.5936 43.3539 95.4604 43.129C95.3272 42.904 95.144 42.7707 94.9192 42.7291C94.6945 42.6874 94.4364 42.7541 94.1533 42.9207L93.1792 43.4955L94.0451 44.9535ZM96.8674 45.7949C96.9506 45.5616 96.9173 45.32 96.7758 45.0784C96.626 44.8285 96.4261 44.6869 96.1681 44.6452C95.91 44.6036 95.6352 44.6702 95.3522 44.8368L94.3365 45.4367L95.2772 47.0196L96.3096 46.4031C96.601 46.2281 96.7925 46.0282 96.8674 45.7949Z" fill="white"/>
<path d="M100.514 43.6707C100.248 43.7956 99.9729 43.8539 99.7148 43.8289C99.4484 43.804 99.2069 43.704 98.9905 43.5207L99.465 42.9708C99.6649 43.1125 99.8896 43.1708 100.131 43.1458C100.373 43.1208 100.606 42.9792 100.822 42.7209C101.03 42.471 101.138 42.2294 101.138 41.9794C101.138 41.7295 101.039 41.5212 100.847 41.3629C100.697 41.238 100.539 41.1713 100.373 41.1713C100.206 41.1713 100.048 41.213 99.8896 41.2963C99.7314 41.3796 99.54 41.5046 99.2985 41.6629C99.0071 41.8628 98.7574 42.0211 98.5576 42.1211C98.3578 42.221 98.133 42.2627 97.8915 42.2544C97.6501 42.2377 97.4087 42.1294 97.1589 41.9211C96.9424 41.7378 96.8009 41.5212 96.726 41.263C96.651 41.013 96.6594 40.7464 96.726 40.4632C96.8092 40.1882 96.9508 39.9216 97.1755 39.6634C97.4919 39.2885 97.8499 39.0635 98.2329 38.9886C98.6158 38.9136 98.9822 38.9886 99.3152 39.2218L98.8323 39.7883C98.6658 39.68 98.466 39.6467 98.2245 39.6884C97.9914 39.73 97.775 39.8633 97.5752 40.0966C97.392 40.3132 97.2921 40.5381 97.2921 40.7714C97.2921 41.0047 97.3837 41.2046 97.5835 41.3796C97.725 41.5046 97.8832 41.5629 98.0414 41.5545C98.1996 41.5545 98.3578 41.5129 98.5076 41.4296C98.6575 41.3546 98.8573 41.2296 99.0987 41.063C99.3984 40.8631 99.6482 40.7131 99.848 40.6131C100.048 40.5132 100.281 40.4715 100.522 40.4798C100.764 40.4882 101.014 40.6048 101.263 40.8214C101.455 40.988 101.596 41.1963 101.68 41.4379C101.763 41.6878 101.771 41.9544 101.705 42.246C101.638 42.5376 101.488 42.8209 101.255 43.0958C101.03 43.3624 100.789 43.554 100.514 43.679V43.6707Z" fill="white"/>
<path d="M54.4577 45.9615C53.6251 45.9615 52.7926 45.9532 51.9517 45.9282C27.0504 45.3367 7.75201 36.1725 8.0101 25.0587C8.1433 19.3852 13.1552 14.3449 22.1217 10.8708C30.4305 7.655 41.3618 6.03043 52.8925 6.30535C64.4315 6.58028 75.2713 8.72138 83.4135 12.3288C92.2052 16.2277 96.9673 21.5013 96.8341 27.1748C96.7009 32.8483 91.689 37.8887 82.7225 41.3628C75.0215 44.3453 65.0643 45.9615 54.4577 45.9615ZM50.3699 10.9541C40.3377 10.9541 30.98 12.4537 23.8118 15.2363C16.8267 17.9439 12.7722 21.568 12.689 25.167C12.5225 32.3235 28.6488 40.6879 52.06 41.2378C63.0079 41.496 73.2815 39.9881 81.0325 36.9889C88.0175 34.2813 92.072 30.6572 92.1552 27.0582C92.2385 23.4508 88.3672 19.6435 81.5153 16.611C73.9225 13.2452 63.7156 11.2457 52.7843 10.9874C51.9767 10.9708 51.1775 10.9625 50.3782 10.9625L50.3699 10.9541Z" fill="white"/>
<path d="M54.7574 16.5278H50.0786V35.7144H54.7574V16.5278Z" fill="white"/>
<path d="M67.2921 17.763L35.8411 30.1096L37.5498 34.4683L69.0009 22.1217L67.2921 17.763Z" fill="white"/>
<path d="M36.7182 17.4375L35.0103 21.7965L68.1144 34.7854L69.8224 30.4264L36.7182 17.4375Z" fill="white"/>
<path d="M91.7556 17.0026C83.1388 10.8043 71.0086 5.74729 57.6213 2.74808C44.234 -0.242794 31.1132 -0.80931 20.6647 1.13184C9.55028 3.20629 2.62352 7.96337 1.15825 14.5283C-1.75565 27.5582 18.5001 42.7958 47.2562 49.2108C52.5844 50.4021 57.8628 51.2019 62.9413 51.6185L64.9893 47.078C59.6194 46.7281 53.9831 45.92 48.2719 44.6453C20.34 38.397 3.71415 24.559 5.72891 15.5447C6.73629 10.9959 12.4975 7.41352 21.5223 5.73063C25.3103 5.03081 29.498 4.67257 33.9438 4.67257C41.0121 4.67257 48.7381 5.564 56.5973 7.31354C69.3852 10.1711 80.8909 14.9615 89.0165 20.8016C96.4761 26.1669 100.164 31.8487 99.1486 36.4058C98.9987 37.064 98.7573 37.6805 98.4243 38.2804C98.5741 38.1804 98.749 38.1054 98.9821 38.1054C99.7314 38.1054 100.056 38.7469 99.9811 39.3217C99.9811 39.4134 99.9811 39.505 99.9561 39.5967C100.164 39.5134 100.397 39.455 100.664 39.455C101.646 39.455 102.212 40.1049 102.354 40.8547C102.987 39.7716 103.453 38.6303 103.719 37.4222C105.176 30.8573 100.93 23.6092 91.7473 16.9943L91.7556 17.0026Z" fill="white"/>
</svg>
